<svg data-v-423bf9ae="" xmlns="http://www.w3.org/2000/svg" viewBox="0 0 262.30766346547296 60" class="font"><!----><!----><!----><g data-v-423bf9ae="" id="d64e41bd-53f5-4df5-b223-c429d8ff3f85" fill="black" transform="matrix(5.128204793802585,0,0,5.128204793802585,-5.333332087057755,-6.974359188977523)"><path d="M8.67 1.36L8.67 1.36L8.67 10.50L6.09 10.50L2.90 3.81L2.90 10.50L1.04 10.50L1.04 1.36L3.61 1.36L6.80 8.05L6.80 1.36L8.67 1.36ZM14.15 10.65L14.15 10.65L14.15 10.65Q12.99 10.65 12.24 10.35L12.24 10.35L12.24 10.35Q11.48 10.04 11.03 9.52L11.03 9.52L11.03 9.52Q10.57 9.00 10.39 8.32L10.39 8.32L10.39 8.32Q10.21 7.64 10.21 6.89L10.21 6.89L10.21 6.89Q10.21 6.22 10.39 5.54L10.39 5.54L10.39 5.54Q10.57 4.87 10.97 4.33L10.97 4.33L10.97 4.33Q11.37 3.79 12.01 3.46L12.01 3.46L12.01 3.46Q12.66 3.12 13.58 3.12L13.58 3.12L13.58 3.12Q14.56 3.12 15.21 3.46L15.21 3.46L15.21 3.46Q15.86 3.79 16.25 4.33L16.25 4.33L16.25 4.33Q16.65 4.87 16.81 5.54L16.81 5.54L16.81 5.54Q16.97 6.22 16.97 6.89L16.97 6.89L16.97 7.52L12.01 7.52L12.01 7.52Q12.01 8.27 12.55 8.76L12.55 8.76L12.55 8.76Q13.09 9.25 14.03 9.25L14.03 9.25L14.03 9.25Q14.56 9.25 15.01 9.14L15.01 9.14L15.01 9.14Q15.46 9.03 15.78 8.89L15.78 8.89L15.78 8.89Q16.14 8.74 16.45 8.53L16.45 8.53L16.45 10.09L16.45 10.09Q16.45 10.11 16.27 10.19L16.27 10.19L16.27 10.19Q16.09 10.28 15.78 10.38L15.78 10.38L15.78 10.38Q15.47 10.49 15.05 10.57L15.05 10.57L15.05 10.57Q14.63 10.65 14.15 10.65ZM12.01 6.19L15.19 6.19L15.19 6.19Q15.19 5.95 15.13 5.66L15.13 5.66L15.13 5.66Q15.06 5.38 14.89 5.12L14.89 5.12L14.89 5.12Q14.71 4.87 14.40 4.70L14.40 4.70L14.40 4.70Q14.08 4.54 13.58 4.54L13.58 4.54L13.58 4.54Q13.15 4.54 12.85 4.70L12.85 4.70L12.85 4.70Q12.54 4.87 12.36 5.12L12.36 5.12L12.36 5.12Q12.18 5.38 12.10 5.66L12.10 5.66L12.10 5.66Q12.01 5.95 12.01 6.19L12.01 6.19ZM21.38 9.20L21.38 9.20L21.38 9.20Q21.78 9.20 22.13 9.13L22.13 9.13L22.13 9.13Q22.30 9.09 22.47 9.04L22.47 9.04L22.48 10.50L22.48 10.50Q22.23 10.54 21.95 10.58L21.95 10.58L21.95 10.58Q21.71 10.61 21.39 10.63L21.39 10.63L21.39 10.63Q21.07 10.65 20.71 10.65L20.71 10.65L20.71 10.65Q20.17 10.60 19.77 10.33L19.77 10.33L19.77 10.33Q19.42 10.09 19.13 9.63L19.13 9.63L19.13 9.63Q18.84 9.16 18.84 8.30L18.84 8.30L18.84 5.36L17.47 5.36L17.47 3.99L18.84 3.99L18.84 1.97L20.71 1.55L20.71 3.99L22.40 3.99L22.40 5.36L20.73 5.36L20.73 8.20L20.73 8.20Q20.73 8.39 20.78 8.56L20.78 8.56L20.78 8.56Q20.83 8.74 20.92 8.88L20.92 8.88L20.92 8.88Q21.01 9.02 21.13 9.11L21.13 9.11L21.13 9.11Q21.25 9.20 21.38 9.20ZM26.07 2.93L26.07 5.01L27.09 5.01L27.09 5.01Q27.33 5.01 27.57 4.96L27.57 4.96L27.57 4.96Q27.80 4.90 27.99 4.77L27.99 4.77L27.99 4.77Q28.17 4.63 28.28 4.42L28.28 4.42L28.28 4.42Q28.39 4.21 28.39 3.91L28.39 3.91L28.39 3.91Q28.39 3.60 28.28 3.40L28.28 3.40L28.28 3.40Q28.17 3.21 27.98 3.10L27.98 3.10L27.98 3.10Q27.79 3.00 27.55 2.96L27.55 2.96L27.55 2.96Q27.30 2.93 27.02 2.93L27.02 2.93L26.07 2.93ZM30.62 7.74L30.62 7.76L30.62 7.76Q30.62 8.51 30.30 9.04L30.30 9.04L30.30 9.04Q29.99 9.56 29.46 9.89L29.46 9.89L29.46 9.89Q28.94 10.22 28.27 10.36L28.27 10.36L28.27 10.36Q27.59 10.50 26.88 10.50L26.88 10.50L24.09 10.50L24.09 1.36L27.06 1.36L27.06 1.36Q27.72 1.36 28.32 1.49L28.32 1.49L28.32 1.49Q28.91 1.62 29.36 1.92L29.36 1.92L29.36 1.92Q29.81 2.23 30.07 2.72L30.07 2.72L30.07 2.72Q30.34 3.21 30.35 3.93L30.35 3.93L30.35 3.95L30.35 3.95Q30.35 4.59 30.07 4.96L30.07 4.96L30.07 4.96Q29.78 5.32 29.44 5.52L29.44 5.52L29.44 5.52Q29.05 5.74 28.55 5.80L28.55 5.80L28.55 5.80Q29.12 5.85 29.58 6.09L29.58 6.09L29.58 6.09Q29.97 6.29 30.30 6.68L30.30 6.68L30.30 6.68Q30.62 7.07 30.62 7.74L30.62 7.74ZM26.07 8.95L27.17 8.95L27.17 8.95Q27.47 8.95 27.73 8.88L27.73 8.88L27.73 8.88Q28 8.82 28.20 8.67L28.20 8.67L28.20 8.67Q28.41 8.53 28.53 8.29L28.53 8.29L28.53 8.29Q28.64 8.05 28.64 7.70L28.64 7.70L28.64 7.70Q28.64 7.34 28.52 7.10L28.52 7.10L28.52 7.10Q28.39 6.86 28.18 6.72L28.18 6.72L28.18 6.72Q27.97 6.58 27.69 6.52L27.69 6.52L27.69 6.52Q27.40 6.47 27.08 6.47L27.08 6.47L26.07 6.47L26.07 8.95ZM34.08 8.48L34.08 8.48L34.08 8.48Q34.09 8.72 34.20 8.86L34.20 8.86L34.20 8.86Q34.31 9.00 34.48 9.06L34.48 9.06L34.48 9.06Q34.64 9.13 34.84 9.13L34.84 9.13L34.84 9.13Q35.04 9.14 35.27 9.11L35.27 9.11L35.27 10.56L35.27 10.56Q35.07 10.60 34.92 10.62L34.92 10.62L34.92 10.62Q34.78 10.64 34.66 10.65L34.66 10.65L34.66 10.65Q34.54 10.67 34.45 10.65L34.45 10.65L34.45 10.65Q33.92 10.65 33.50 10.61L33.50 10.61L33.50 10.61Q33.08 10.57 32.79 10.34L32.79 10.34L32.79 10.34Q32.49 10.11 32.34 9.64L32.34 9.64L32.34 9.64Q32.19 9.17 32.19 8.30L32.19 8.30L32.19 1.55L34.08 1.55L34.08 8.48ZM40.31 3.12L40.31 3.12L40.31 3.12Q40.87 3.12 41.52 3.29L41.52 3.29L41.52 3.29Q42.18 3.46 42.76 3.88L42.76 3.88L42.76 3.88Q43.33 4.30 43.72 5.03L43.72 5.03L43.72 5.03Q44.10 5.75 44.10 6.89L44.10 6.89L44.10 6.89Q44.10 8.02 43.72 8.75L43.72 8.75L43.72 8.75Q43.33 9.48 42.76 9.90L42.76 9.90L42.76 9.90Q42.18 10.32 41.52 10.49L41.52 10.49L41.52 10.49Q40.87 10.65 40.31 10.65L40.31 10.65L40.31 10.65Q39.75 10.65 39.09 10.49L39.09 10.49L39.09 10.49Q38.43 10.32 37.86 9.90L37.86 9.90L37.86 9.90Q37.30 9.48 36.92 8.75L36.92 8.75L36.92 8.75Q36.54 8.02 36.54 6.89L36.54 6.89L36.54 6.89Q36.54 5.75 36.92 5.03L36.92 5.03L36.92 5.03Q37.30 4.30 37.86 3.88L37.86 3.88L37.86 3.88Q38.43 3.46 39.09 3.29L39.09 3.29L39.09 3.29Q39.75 3.12 40.31 3.12ZM40.31 9.25L40.31 9.25L40.31 9.25Q41.09 9.25 41.62 8.64L41.62 8.64L41.62 8.64Q42.14 8.02 42.14 6.89L42.14 6.89L42.14 6.89Q42.14 5.75 41.62 5.14L41.62 5.14L41.62 5.14Q41.09 4.54 40.31 4.54L40.31 4.54L40.31 4.54Q39.55 4.54 39.03 5.14L39.03 5.14L39.03 5.14Q38.51 5.75 38.51 6.89L38.51 6.89L38.51 6.89Q38.51 7.45 38.65 7.89L38.65 7.89L38.65 7.89Q38.79 8.33 39.03 8.63L39.03 8.63L39.03 8.63Q39.27 8.93 39.60 9.09L39.60 9.09L39.60 9.09Q39.93 9.25 40.31 9.25ZM50.72 3.29L52.19 3.29L52.19 9.63L52.19 9.63Q52.19 10.32 51.98 10.93L51.98 10.93L51.98 10.93Q51.76 11.54 51.29 12.01L51.29 12.01L51.29 12.01Q50.82 12.47 50.09 12.76L50.09 12.76L50.09 12.76Q49.36 13.05 48.34 13.06L48.34 13.06L48.34 13.06Q47.80 13.06 47.35 12.98L47.35 12.98L47.35 12.98Q46.90 12.91 46.58 12.81L46.58 12.81L46.58 12.81Q46.20 12.70 45.89 12.54L45.89 12.54L46.03 11.05L46.03 11.05Q46.34 11.20 46.70 11.33L46.70 11.33L46.70 11.33Q47.03 11.44 47.44 11.52L47.44 11.52L47.44 11.52Q47.85 11.59 48.34 11.59L48.34 11.59L48.34 11.59Q48.93 11.59 49.30 11.43L49.30 11.43L49.30 11.43Q49.67 11.27 49.89 11.03L49.89 11.03L49.89 11.03Q50.11 10.78 50.20 10.50L50.20 10.50L50.20 10.50Q50.30 10.22 50.32 9.97L50.32 9.97L50.32 9.97Q50.34 9.73 50.33 9.56L50.33 9.56L50.33 9.56Q50.32 9.39 50.32 9.39L50.32 9.39L50.32 9.39Q50.32 9.39 50.20 9.56L50.20 9.56L50.20 9.56Q50.09 9.73 49.84 9.94L49.84 9.94L49.84 9.94Q49.59 10.15 49.18 10.32L49.18 10.32L49.18 10.32Q48.78 10.50 48.19 10.50L48.19 10.50L48.19 10.50Q47.56 10.50 47.00 10.31L47.00 10.31L47.00 10.31Q46.44 10.12 46.02 9.68L46.02 9.68L46.02 9.68Q45.60 9.24 45.35 8.53L45.35 8.53L45.35 8.53Q45.11 7.81 45.11 6.78L45.11 6.78L45.11 6.78Q45.11 5.74 45.42 5.04L45.42 5.04L45.42 5.04Q45.72 4.34 46.19 3.91L46.19 3.91L46.19 3.91Q46.65 3.49 47.19 3.30L47.19 3.30L47.19 3.30Q47.73 3.12 48.19 3.12L48.19 3.12L48.19 3.12Q48.73 3.12 49.14 3.28L49.14 3.28L49.14 3.28Q49.55 3.44 49.80 3.64L49.80 3.64L49.80 3.64Q50.06 3.84 50.20 4.00L50.20 4.00L50.20 4.00Q50.33 4.16 50.33 4.16L50.33 4.16L50.72 3.29ZM50.32 6.82L50.32 6.82L50.32 6.82Q50.32 5.68 49.87 5.13L49.87 5.13L49.87 5.13Q49.42 4.58 48.69 4.58L48.69 4.58L48.69 4.58Q47.96 4.58 47.52 5.13L47.52 5.13L47.52 5.13Q47.07 5.68 47.07 6.82L47.07 6.82L47.07 6.82Q47.07 7.95 47.52 8.50L47.52 8.50L47.52 8.50Q47.96 9.04 48.69 9.04L48.69 9.04L48.69 9.04Q49.42 9.04 49.87 8.50L49.87 8.50L49.87 8.50Q50.32 7.95 50.32 6.82Z"></path></g><!----><!----></svg>